<?xml version="1.0" encoding="utf-8"?>
<!-- Generator: Adobe Illustrator 19.0.0, SVG Export Plug-In . SVG Version: 6.00 Build 0)  -->
<svg version="1.1" id="Layer_1" xmlns="http://www.w3.org/2000/svg" xmlns:xlink="http://www.w3.org/1999/xlink" x="0px" y="0px"
	 viewBox="0 0 1400 980" style="enable-background:new 0 0 1400 980;" xml:space="preserve">
<style type="text/css">
	.st0{fill:url(#XMLID_2_);}
	.st1{opacity:0.79;fill:url(#XMLID_3_);}
	.st2{opacity:0.79;fill:url(#XMLID_4_);}
	.st3{opacity:0.79;fill:url(#XMLID_5_);}
	.st4{opacity:0.79;fill:url(#XMLID_6_);}
	.st5{fill:url(#XMLID_7_);}
	.st6{fill:url(#XMLID_8_);}
	.st7{fill:url(#XMLID_9_);}
	.st8{fill:url(#XMLID_10_);}
	.st9{fill:url(#XMLID_11_);}
	.st10{fill:url(#XMLID_12_);}
	.st11{fill:url(#XMLID_13_);}
	.st12{fill:url(#XMLID_14_);}
	.st13{fill:url(#XMLID_15_);}
	.st14{opacity:0.6;fill:url(#XMLID_16_);}
	.st15{opacity:0.6;fill:url(#XMLID_17_);}
	.st16{opacity:0.6;fill:url(#XMLID_18_);}
	.st17{opacity:0.6;fill:url(#XMLID_19_);}
	.st18{opacity:0.6;fill:url(#XMLID_20_);}
	.st19{opacity:0.6;fill:url(#XMLID_21_);}
	.st20{opacity:0.6;fill:url(#XMLID_22_);}
	.st21{opacity:0.6;fill:url(#XMLID_23_);}
	.st22{opacity:0.6;fill:url(#XMLID_24_);}
	.st23{opacity:0.6;fill:url(#XMLID_25_);}
	.st24{opacity:0.6;fill:url(#XMLID_26_);}
</style>
<g id="XMLID_6575_">
	<linearGradient id="XMLID_2_" gradientUnits="userSpaceOnUse" x1="700" y1="4.8296" x2="700" y2="898.9643">
		<stop  offset="0" style="stop-color:#A7A9AC"/>
		<stop  offset="6.286227e-002" style="stop-color:#B1B3B5"/>
		<stop  offset="0.1843" style="stop-color:#BEC0C2"/>
		<stop  offset="0.3198" style="stop-color:#C6C8CA"/>
		<stop  offset="0.4968" style="stop-color:#C9CACC"/>
		<stop  offset="0.8081" style="stop-color:#CBCDCF"/>
		<stop  offset="1" style="stop-color:#D1D3D4"/>
	</linearGradient>
	<rect id="XMLID_409_" class="st0" width="1400" height="980"/>
	<g id="XMLID_408_">
		<linearGradient id="XMLID_3_" gradientUnits="userSpaceOnUse" x1="395.3458" y1="588.8392" x2="395.3458" y2="797.9895">
			<stop  offset="0" style="stop-color:#000000"/>
			<stop  offset="8.962709e-002" style="stop-color:#000000;stop-opacity:0.9104"/>
			<stop  offset="1" style="stop-color:#000000;stop-opacity:0"/>
		</linearGradient>
		<path id="XMLID_410_" class="st1" d="M349.6,861.4V740.9c0-31.9,15-44,39-44c23.9,0,39,12.1,39,44v120.4h75.2v-116
			c0-24.9-4.8-45.9-14.4-62.4c3.4-8.3,8.9-9.6,21.2-9.6h6.8v-62.4h-10.3c-33.5,0-54.7,11.5-64.9,30.6c-15-5.1-32.8-8.3-52.6-8.3
			c-73.8,0-114.1,40.8-114.1,112.1v116H349.6z"/>
		<linearGradient id="XMLID_4_" gradientUnits="userSpaceOnUse" x1="645.9092" y1="585.5059" x2="645.9092" y2="794.6561">
			<stop  offset="0" style="stop-color:#000000"/>
			<stop  offset="8.962709e-002" style="stop-color:#000000;stop-opacity:0.9104"/>
			<stop  offset="1" style="stop-color:#000000;stop-opacity:0"/>
		</linearGradient>
		<path id="XMLID_930_" class="st2" d="M609,858v-89.7c0-33.7,15-45.9,39-45.9c23.9,0,39,12.1,39,45.9V858H758v-85
			c0-75.6-38.3-118.8-112.1-118.8c-73.8,0-112.1,43.2-112.1,118.8v85H609z"/>
		<linearGradient id="XMLID_5_" gradientUnits="userSpaceOnUse" x1="830.6071" y1="588.8392" x2="830.6071" y2="797.9895">
			<stop  offset="0" style="stop-color:#000000"/>
			<stop  offset="8.962709e-002" style="stop-color:#000000;stop-opacity:0.9104"/>
			<stop  offset="1" style="stop-color:#000000;stop-opacity:0"/>
		</linearGradient>
		<rect id="XMLID_919_" x="793" y="657.6" class="st3" width="75.2" height="203.7"/>
		<linearGradient id="XMLID_6_" gradientUnits="userSpaceOnUse" x1="1015.5894" y1="588.8392" x2="1015.5894" y2="797.9895">
			<stop  offset="0" style="stop-color:#000000"/>
			<stop  offset="8.962709e-002" style="stop-color:#000000;stop-opacity:0.9104"/>
			<stop  offset="1" style="stop-color:#000000;stop-opacity:0"/>
		</linearGradient>
		<polygon id="XMLID_411_" class="st4" points="1039.1,861.4 982.8,726 1125.6,726 1125.6,657.6 905.6,657.6 905.6,724.6 
			962.5,861.4 		"/>
		<g id="XMLID_965_">
			<linearGradient id="XMLID_7_" gradientUnits="userSpaceOnUse" x1="395.3458" y1="162.1722" x2="395.3458" y2="654.2938">
				<stop  offset="0" style="stop-color:#F074AC"/>
				<stop  offset="0.5" style="stop-color:#EB008B"/>
				<stop  offset="1" style="stop-color:#CD118C"/>
			</linearGradient>
			<path id="XMLID_1340_" class="st5" d="M274.4,291.3c0-71.4,40.3-112.1,114.1-112.1s114.1,40.8,114.1,112.1v231.9
				c0,24.9-4.8,45.9-14.4,62.4c3.4,8.3,8.9,9.6,21.2,9.6h6.8v62.4h-10.3c-33.5,0-54.7-11.5-64.9-30.6c-15,5.1-32.8,8.3-52.6,8.3
				c-73.8,0-114.1-40.8-114.1-112.1V291.3z M349.6,527.7c0,31.9,15,44,39,44c23.9,0,39-12.1,39-44V286.8c0-31.9-15-44-39-44
				c-23.9,0-39,12.1-39,44V527.7z"/>
		</g>
		<g id="XMLID_1355_">
			<linearGradient id="XMLID_8_" gradientUnits="userSpaceOnUse" x1="1015.5894" y1="179.2412" x2="1015.5894" y2="657.6426">
				<stop  offset="5.618000e-003" style="stop-color:#8AD0C3"/>
				<stop  offset="0.5" style="stop-color:#00B6A9"/>
				<stop  offset="1" style="stop-color:#00A185"/>
			</linearGradient>
			<path id="XMLID_1370_" class="st6" d="M1125.6,179.2v67L982.8,589.3h142.8v68.3H905.6v-67l142.8-343.1h-136v-68.3H1125.6z"/>
		</g>
		<g id="XMLID_1351_">
			<linearGradient id="XMLID_9_" gradientUnits="userSpaceOnUse" x1="830.6071" y1="179.2412" x2="830.6071" y2="657.6426">
				<stop  offset="0" style="stop-color:#F37F7B"/>
				<stop  offset="0.5" style="stop-color:#ED3D57"/>
				<stop  offset="1" style="stop-color:#DD1E47"/>
			</linearGradient>
			<path id="XMLID_1366_" class="st7" d="M793,179.2h75.2v478.4H793V179.2z"/>
		</g>
		<g id="XMLID_1350_">
			<linearGradient id="XMLID_10_" gradientUnits="userSpaceOnUse" x1="645.9092" y1="657.6426" x2="645.9092" y2="179.2411">
				<stop  offset="0" style="stop-color:#FAAC18"/>
				<stop  offset="0.5" style="stop-color:#FFCA05"/>
				<stop  offset="1" style="stop-color:#FFE7A3"/>
			</linearGradient>
			<path id="XMLID_1352_" class="st8" d="M609,179.2v364.4c0,33.7,15,45.9,39,45.9c23.9,0,39-12.1,39-45.9V179.2H758v359.6
				c0,75.6-38.3,118.8-112.1,118.8c-73.8,0-112.1-43.2-112.1-118.8V179.2H609z"/>
		</g>
		<linearGradient id="XMLID_11_" gradientUnits="userSpaceOnUse" x1="388.5115" y1="282.2653" x2="388.5115" y2="439.7823">
			<stop  offset="0" style="stop-color:#FDFDFE;stop-opacity:0"/>
			<stop  offset="0.9104" style="stop-color:#FDFDFE;stop-opacity:0.9104"/>
			<stop  offset="1" style="stop-color:#FDFDFE"/>
		</linearGradient>
		<path id="XMLID_928_" class="st9" d="M388.5,179.1c-73.8,0-114.1,40.8-114.1,112.1v127.2h75.2V286.8c0-31.9,15-44,39-44
			c23.9,0,39,12.1,39,44v131.6h75.2V291.3C502.6,219.9,462.3,179.1,388.5,179.1z"/>
		<g id="XMLID_412_">
			<linearGradient id="XMLID_12_" gradientUnits="userSpaceOnUse" x1="722.4536" y1="282.3383" x2="722.4536" y2="439.7709">
				<stop  offset="0" style="stop-color:#FDFDFE;stop-opacity:0"/>
				<stop  offset="0.9104" style="stop-color:#FDFDFE;stop-opacity:0.9104"/>
				<stop  offset="1" style="stop-color:#FDFDFE"/>
			</linearGradient>
			<rect id="XMLID_917_" x="686.9" y="179.2" class="st10" width="71.1" height="239.2"/>
			<linearGradient id="XMLID_13_" gradientUnits="userSpaceOnUse" x1="571.4153" y1="282.3383" x2="571.4153" y2="439.7709">
				<stop  offset="0" style="stop-color:#FDFDFE;stop-opacity:0"/>
				<stop  offset="0.9104" style="stop-color:#FDFDFE;stop-opacity:0.9104"/>
				<stop  offset="1" style="stop-color:#FDFDFE"/>
			</linearGradient>
			<rect id="XMLID_918_" x="533.8" y="179.2" class="st11" width="75.2" height="239.2"/>
		</g>
		<linearGradient id="XMLID_14_" gradientUnits="userSpaceOnUse" x1="830.6071" y1="282.3383" x2="830.6071" y2="439.7709">
			<stop  offset="0" style="stop-color:#FDFDFE;stop-opacity:0"/>
			<stop  offset="0.9104" style="stop-color:#FDFDFE;stop-opacity:0.9104"/>
			<stop  offset="1" style="stop-color:#FDFDFE"/>
		</linearGradient>
		<rect id="XMLID_916_" x="793" y="179.2" class="st12" width="75.2" height="239.2"/>
		<linearGradient id="XMLID_15_" gradientUnits="userSpaceOnUse" x1="1019.0065" y1="282.3383" x2="1019.0065" y2="439.7709">
			<stop  offset="0" style="stop-color:#FDFDFE;stop-opacity:0"/>
			<stop  offset="0.9104" style="stop-color:#FDFDFE;stop-opacity:0.9104"/>
			<stop  offset="1" style="stop-color:#FDFDFE"/>
		</linearGradient>
		<polygon id="XMLID_915_" class="st13" points="912.4,247.6 1048.4,247.6 977.3,418.4 1053.9,418.4 1125.6,246.2 1125.6,179.2 
			912.4,179.2 		"/>
	</g>
	
		<radialGradient id="XMLID_16_" cx="-84.3278" cy="397.4816" r="68.5778" gradientTransform="matrix(1.8549 0 0 0.1057 1178.2568 137.9798)" gradientUnits="userSpaceOnUse">
		<stop  offset="0" style="stop-color:#FDFDFE"/>
		<stop  offset="8.962709e-002" style="stop-color:#FDFDFE;stop-opacity:0.9104"/>
		<stop  offset="1" style="stop-color:#FDFDFE;stop-opacity:0"/>
	</radialGradient>
	<ellipse id="XMLID_397_" class="st14" cx="1021.8" cy="180" rx="140.7" ry="11.9"/>
	
		<radialGradient id="XMLID_17_" cx="1105.7955" cy="127.0329" r="68.5778" gradientTransform="matrix(0.9277 0 0 6.122458e-002 -195.2359 172.2135)" gradientUnits="userSpaceOnUse">
		<stop  offset="0" style="stop-color:#FDFDFE"/>
		<stop  offset="8.962709e-002" style="stop-color:#FDFDFE;stop-opacity:0.9104"/>
		<stop  offset="1" style="stop-color:#FDFDFE;stop-opacity:0"/>
	</radialGradient>
	<ellipse id="XMLID_1385_" class="st15" cx="830.6" cy="180" rx="70.4" ry="6.9"/>
	
		<radialGradient id="XMLID_18_" cx="989.2127" cy="127.0329" r="68.5778" gradientTransform="matrix(0.9277 0 0 6.122458e-002 -195.2359 172.2135)" gradientUnits="userSpaceOnUse">
		<stop  offset="0" style="stop-color:#FDFDFE"/>
		<stop  offset="8.962709e-002" style="stop-color:#FDFDFE;stop-opacity:0.9104"/>
		<stop  offset="1" style="stop-color:#FDFDFE;stop-opacity:0"/>
	</radialGradient>
	<ellipse id="XMLID_1386_" class="st16" cx="722.5" cy="180" rx="70.4" ry="6.9"/>
	
		<radialGradient id="XMLID_19_" cx="826.4028" cy="127.0329" r="68.5778" gradientTransform="matrix(0.9277 0 0 6.122458e-002 -195.2359 172.2135)" gradientUnits="userSpaceOnUse">
		<stop  offset="0" style="stop-color:#FDFDFE"/>
		<stop  offset="8.962709e-002" style="stop-color:#FDFDFE;stop-opacity:0.9104"/>
		<stop  offset="1" style="stop-color:#FDFDFE;stop-opacity:0"/>
	</radialGradient>
	<ellipse id="XMLID_1387_" class="st17" cx="571.4" cy="180" rx="70.4" ry="6.9"/>
	
		<radialGradient id="XMLID_20_" cx="629.2438" cy="316.4026" r="68.5778" gradientTransform="matrix(0.9277 0 0 8.679430e-002 -195.2359 152.5291)" gradientUnits="userSpaceOnUse">
		<stop  offset="0" style="stop-color:#FDFDFE"/>
		<stop  offset="8.962709e-002" style="stop-color:#FDFDFE;stop-opacity:0.9104"/>
		<stop  offset="1" style="stop-color:#FDFDFE;stop-opacity:0"/>
	</radialGradient>
	<ellipse id="XMLID_1388_" class="st18" cx="388.5" cy="180" rx="70.4" ry="9.8"/>
	<radialGradient id="XMLID_21_" cx="979.9227" cy="418.3777" r="35.6667" gradientUnits="userSpaceOnUse">
		<stop  offset="0" style="stop-color:#FDFDFE"/>
		<stop  offset="8.962709e-002" style="stop-color:#FDFDFE;stop-opacity:0.9104"/>
		<stop  offset="1" style="stop-color:#FDFDFE;stop-opacity:0"/>
	</radialGradient>
	<circle id="XMLID_1384_" class="st19" cx="979.9" cy="418.4" r="35.7"/>
	<radialGradient id="XMLID_22_" cx="865.2908" cy="418.3777" r="35.6667" gradientUnits="userSpaceOnUse">
		<stop  offset="0" style="stop-color:#FDFDFE"/>
		<stop  offset="8.962709e-002" style="stop-color:#FDFDFE;stop-opacity:0.9104"/>
		<stop  offset="1" style="stop-color:#FDFDFE;stop-opacity:0"/>
	</radialGradient>
	<circle id="XMLID_1390_" class="st20" cx="865.3" cy="418.4" r="35.7"/>
	<radialGradient id="XMLID_23_" cx="743.2908" cy="418.3777" r="35.6667" gradientUnits="userSpaceOnUse">
		<stop  offset="0" style="stop-color:#FDFDFE"/>
		<stop  offset="8.962709e-002" style="stop-color:#FDFDFE;stop-opacity:0.9104"/>
		<stop  offset="1" style="stop-color:#FDFDFE;stop-opacity:0"/>
	</radialGradient>
	<circle id="XMLID_1395_" class="st21" cx="743.3" cy="418.4" r="35.7"/>
	<radialGradient id="XMLID_24_" cx="600" cy="418.4419" r="35.6667" gradientUnits="userSpaceOnUse">
		<stop  offset="0" style="stop-color:#FDFDFE"/>
		<stop  offset="8.962709e-002" style="stop-color:#FDFDFE;stop-opacity:0.9104"/>
		<stop  offset="1" style="stop-color:#FDFDFE;stop-opacity:0"/>
	</radialGradient>
	<circle id="XMLID_1399_" class="st22" cx="600" cy="418.4" r="35.7"/>
	<radialGradient id="XMLID_25_" cx="431.0125" cy="418.3777" r="35.6667" gradientUnits="userSpaceOnUse">
		<stop  offset="0" style="stop-color:#FDFDFE"/>
		<stop  offset="8.962709e-002" style="stop-color:#FDFDFE;stop-opacity:0.9104"/>
		<stop  offset="1" style="stop-color:#FDFDFE;stop-opacity:0"/>
	</radialGradient>
	<circle id="XMLID_1400_" class="st23" cx="431" cy="418.4" r="35.7"/>
	<radialGradient id="XMLID_26_" cx="274.3783" cy="418.3777" r="35.6667" gradientUnits="userSpaceOnUse">
		<stop  offset="0" style="stop-color:#FDFDFE"/>
		<stop  offset="8.962709e-002" style="stop-color:#FDFDFE;stop-opacity:0.9104"/>
		<stop  offset="1" style="stop-color:#FDFDFE;stop-opacity:0"/>
	</radialGradient>
	<circle id="XMLID_1401_" class="st24" cx="274.4" cy="418.4" r="35.7"/>
</g>
</svg>
