<?xml version="1.0" encoding="utf-8"?>
<svg id="master-artboard" viewBox="0 0 1400 980" version="1.1" xmlns="http://www.w3.org/2000/svg" x="0px" y="0px" style="enable-background:new 0 0 1400 980;" width="1400px" height="980px"><defs><style id="ee-google-fonts">@import url(https://fonts.googleapis.com/css?family=Anton:400|Roboto+Slab:100,300,400,700);</style><path id="text-path-0" d="M 778.8464965820312 213.4612274169922 A 100 18 0 0 1 988.3533935546875 213.4612274169922 A 100 18 0 0 1 778.8464965820312 213.4612274169922 Z" style="fill: none; stroke: red; stroke-width: 2;"/><path id="text-path-1" d="M 664.5464477539062 37.96122741699219 A 100 19 0 0 1 876.5812377929688 37.96122741699219 A 100 19 0 0 1 664.5464477539062 37.96122741699219" style="fill: none; stroke: red; stroke-width: 2;"/><path id="text-path-2" d="M 765.3650512695312 211.70851135253906 A 100 17 0 0 1 991.5017700195312 211.70851135253906 A 100 17 0 0 1 765.3650512695312 211.70851135253906" style="fill: none; stroke: red; stroke-width: 2;"/><path id="path-1" d="M 765.3650512695312 211.70851135253906 A 100 17 0 0 1 991.5017700195312 211.70851135253906 A 100 17 0 0 1 765.3650512695312 211.70851135253906" style="fill: none; stroke: red; stroke-width: 2;"/></defs><rect id="ee-background" x="0" y="0" width="1400" height="980" style="fill: white; fill-opacity: 1; pointer-events: none;"/>


<path style="fill: rgb(63, 61, 61); fill-opacity: 1; stroke: rgb(0, 0, 0); stroke-opacity: 1; stroke-width: 0; paint-order: fill;"/><path style="fill: rgb(63, 61, 61); fill-opacity: 1; stroke: rgb(0, 0, 0); stroke-opacity: 1; stroke-width: 0; paint-order: fill;"/><path d="M 880.3870239257812 239.90606689453125" style="fill: rgb(63, 61, 61); fill-opacity: 1; stroke: rgb(0, 0, 0); stroke-opacity: 1; stroke-width: 0; paint-order: fill;"/><path d="M 864.144775390625 229.48651123046875" style="fill: rgb(63, 61, 61); fill-opacity: 1; stroke: rgb(0, 0, 0); stroke-opacity: 1; stroke-width: 0; paint-order: fill;"/><path style="fill: rgb(63, 61, 61); fill-opacity: 1; stroke: rgb(0, 0, 0); stroke-opacity: 1; stroke-width: 0; paint-order: fill;"/><path style="fill: rgb(63, 61, 61); fill-opacity: 1; stroke: rgb(0, 0, 0); stroke-opacity: 1; stroke-width: 0; paint-order: fill;"/><path style="fill: rgb(63, 61, 61); fill-opacity: 1; stroke: rgb(0, 0, 0); stroke-opacity: 1; stroke-width: 0; paint-order: fill;"/><path style="fill: rgb(63, 61, 61); fill-opacity: 1; stroke: rgb(0, 0, 0); stroke-opacity: 1; stroke-width: 0; paint-order: fill;"/><path fill-rule="evenodd" clip-rule="evenodd" d="M587.666,730.185c5.631-5.973,13.179-9.462,21.627-10.028l4.844-0.226&#10;&#9;&#9;&#9;&#9;l4.167,1.692c0.563,0.109,1.125,0.226,1.576,0.335c4.168,1.016,7.998,3.042,11.491,5.521c4.392-2.363,9.46-3.492,14.867-3.155&#10;&#9;&#9;&#9;&#9;c3.38,0.226,6.422,1.126,9.577,2.367c4.393,0.226,10.024-0.791,14.193-1.35c10.478-1.468,19.151-1.018,28.613,4.051&#10;&#9;&#9;&#9;&#9;c0.563,0.342,1.125,0.676,1.688,1.018c4.056-0.45,8.224-0.45,12.392-0.567c3.492-0.108,7.098-0.108,10.703,0.117&#10;&#9;&#9;&#9;&#9;c3.492,0.225,6.981,0.108,10.474,0c4.844-0.117,9.688-0.226,14.534,0.108c14.755,0.904,31.652,3.492,38.862,18.251&#10;&#9;&#9;&#9;&#9;c4.506,9.236,3.043,18.477-0.675,27.038c3.039-0.68,6.193-1.354,9.236-2.029c6.306-1.464,12.842-2.03,19.261-1.58&#10;&#9;&#9;&#9;&#9;c10.253,0.676,19.489,5.41,24.558,14.534c5.185,9.236,4.28,19.71,0.903,29.288c-5.297,14.755-15.096,21.402-30.529,21.178&#10;&#9;&#9;&#9;&#9;c-0.901,0.112-1.913,0.338-2.701,0.45c-3.493,0.676-6.874,1.463-10.254,2.139c-9.686,2.255-19.26,4.617-28.951,7.21&#10;&#9;&#9;&#9;&#9;c-8.448,2.143-16.896,4.509-25.232,6.985c-5.294,1.467-10.699,3.043-15.768,5.068c-7.211,2.817-13.296,5.186-21.29,4.73&#10;&#9;&#9;&#9;&#9;c-6.874-0.449-13.071-3.039-18.252-7.323c-3.492,1.13-7.094,1.806-10.812,2.255c-5.409,0.563-10.703,0.563-16.109,0.901&#10;&#9;&#9;&#9;&#9;c-1.58,0.112-3.381,0.563-4.956,0.904c-3.943,0.675-7.886,1.008-11.942,0.675c-14.646-1.017-25.008-7.549-29.401-18.814&#10;&#9;&#9;&#9;&#9;c-10.028,7.999-22.419,13.404-34.581,12.616c-4.51-0.337-8.903-1.351-13.071-2.929c-5.407,5.521-12.163,9.689-19.148,11.715&#10;&#9;&#9;&#9;&#9;l-3.605,1.014l-3.718-0.334c-6.193-0.566-12.054-2.593-16.897-5.973c-5.293,1.805-10.699,2.254-17.572,1.913&#10;&#9;&#9;&#9;&#9;c-14.192-0.559-26.809-6.757-34.807-18.697c-2.93-4.394-4.957-9.35-6.535-14.305c-1.801-5.86-2.926-11.941-2.251-18.023&#10;&#9;&#9;&#9;&#9;l2.251-21.293c0.787-8.332,3.042-16.218,6.647-23.654c1.914-3.834,4.169-7.21,6.195-10.815&#10;&#9;&#9;&#9;&#9;c7.886-14.192,19.939-24.896,36.611-27.038c3.493-0.45,7.098-0.559,10.7-0.334c7.773,0.559,14.871,2.813,20.952,6.645&#10;&#9;&#9;&#9;&#9;c5.86-5.856,13.296-9.687,22.083-10.137l2.814-0.117l2.592,0.567C578.876,724.1,583.835,726.579,587.666,730.185L587.666,730.185&#10;&#9;&#9;&#9;&#9;z" transform="matrix(1, 0, 0, 1, 3.310361003508376, -355.0899049206015)"/><path fill-rule="evenodd" clip-rule="evenodd" fill="#FEFEFE" d="M640.608,771.415l-6.082-0.567v-0.899&#10;&#9;&#9;&#9;&#9;c-1.354-0.451-2.705-1.014-3.942-1.576l-2.368-1.018l-1.013-2.362c-0.112-0.226-0.225-0.451-0.337-0.563c0,0.45,0,0.9,0,1.351&#10;&#9;&#9;&#9;&#9;v0.675l-0.113,0.676c-0.675,3.381-0.901,7.548-1.242,11.041c-0.451,4.618-1.463,9.012-3.039,13.404&#10;&#9;&#9;&#9;&#9;c-2.48,7.323-5.068,14.191-9.349,20.728c-7.323,10.812-22.645,22.532-36.387,21.628c-6.986-0.563-13.067-3.38-18.022-7.657&#10;&#9;&#9;&#9;&#9;c-3.043,7.886-11.378,14.755-18.814,16.896l-1.238,0.335l-1.238-0.109c-5.41-0.566-10.253-2.592-13.746-6.872&#10;&#9;&#9;&#9;&#9;c-0.563-0.788-1.238-1.464-1.801-2.255c-6.31,4.51-10.703,5.409-19.376,5.068c-9.912-0.451-18.473-4.394-24.104-12.613&#10;&#9;&#9;&#9;&#9;c-2.142-3.268-3.605-6.985-4.734-10.703c-1.126-3.942-2.139-8.336-1.688-12.504l2.138-21.291&#10;&#9;&#9;&#9;&#9;c0.792-6.76,2.592-13.065,5.522-19.147c1.688-3.609,3.831-6.535,5.744-10.028c5.748-10.253,14.197-18.473,26.247-20.048&#10;&#9;&#9;&#9;&#9;c2.592-0.341,5.297-0.341,7.999-0.229c11.715,0.788,20.276,6.761,25.345,16.897c0.338-2.363,0.792-4.618,1.467-6.981l0.226-0.791&#10;&#9;&#9;&#9;&#9;l0.45-0.788c3.831-6.532,9.462-11.491,17.235-11.825h0.9l0.901,0.108c8.223,1.918,13.97,7.66,12.391,16.447&#10;&#9;&#9;&#9;&#9;c0,3.268-0.45,6.647-0.899,9.911c-0.338,3.269-0.563,6.423-0.788,9.69c-0.451,8.674-0.338,17.348,3.042,25.571&#10;&#9;&#9;&#9;&#9;c0.338,0.9,1.239,2.817,2.138,4.28c0.451-0.337,0.788-0.676,1.126-1.125c1.354-2.139,2.705-4.506,4.055-6.648&#10;&#9;&#9;&#9;&#9;c2.142-3.602,2.93-10.929,3.268-14.979c0.45-7.548-0.338-14.984-2.93-22.082l-0.901-2.363l0.788-2.255&#10;&#9;&#9;&#9;&#9;c1.241-3.377,2.817-8.11,4.847-11.037c3.264-4.734,8.219-7.21,13.968-7.661l1.575-0.111l1.467,0.675&#10;&#9;&#9;&#9;&#9;c1.014,0.337,2.364,0.675,3.489,0.899c2.818,0.68,5.41,2.255,7.661,4.168l1.467,1.13l0.675,1.688&#10;&#9;&#9;&#9;&#9;c1.012,2.588,1.8,5.405,2.364,8.223c0.679-1.692,1.466-3.38,2.479-4.959c3.267-4.843,7.998-7.995,13.966-7.544&#10;&#9;&#9;&#9;&#9;c1.918,0.111,3.943,0.787,5.749,1.575c0.45,0.116,1.238,0.45,1.688,0.566c6.082,0.334,13.067-0.45,19.152-1.242&#10;&#9;&#9;&#9;&#9;c7.432-1.125,13.292-1.125,20.16,2.593c1.805,0.9,3.156,2.25,4.056,3.942c1.354-0.675,2.817-1.125,4.393-1.351&#10;&#9;&#9;&#9;&#9;c3.943-0.453,8.449-0.453,12.392-0.565c3.155-0.113,6.422-0.113,9.577,0.112c3.83,0.225,7.883,0.111,11.712,0&#10;&#9;&#9;&#9;&#9;c4.394-0.112,8.899-0.226,13.184,0c8.899,0.679,22.979,1.579,27.484,10.703c4.28,8.674-2.705,19.485-7.436,26.584l-1.238,1.913&#10;&#9;&#9;&#9;&#9;l-2.029,0.791c-1.014,0.45-2.702,2.593-3.377,3.493c-1.804,2.363-4.168,5.294-6.647,7.319c-0.563,0.899-1.238,1.801-1.914,2.705&#10;&#9;&#9;&#9;&#9;c4.281-0.904,8.45-1.913,12.73-2.817c11.262-2.589,22.527-5.182,33.793-7.657c5.068-1.13,10.25-1.692,15.431-1.354&#10;&#9;&#9;&#9;&#9;c5.41,0.45,10.591,2.589,13.408,7.548c3.151,5.519,1.913,12.279-0.112,17.91c-3.268,9.24-7.886,12.616-17.688,11.941&#10;&#9;&#9;&#9;&#9;c-1.464,0-3.602,0.45-5.068,0.788c-3.605,0.679-7.211,1.463-10.7,2.254c-9.802,2.252-19.602,4.619-29.4,7.211&#10;&#9;&#9;&#9;&#9;c-8.562,2.251-17.126,4.619-25.688,7.095c-5.631,1.575-11.6,3.38-17.009,5.518c-4.957,1.918-9.8,4.168-15.206,3.835&#10;&#9;&#9;&#9;&#9;c-4.618-0.342-8.561-2.368-11.716-5.522c-1.576-1.579-2.817-3.268-3.718-5.181c-4.393,3.15-10.136,4.955-16.109,5.631&#10;&#9;&#9;&#9;&#9;c-5.181,0.563-10.362,0.563-15.542,0.904c-1.917,0.108-4.393,0.675-6.311,1.009c-2.817,0.45-5.743,0.791-8.673,0.567&#10;&#9;&#9;&#9;&#9;c-13.18-0.901-19.602-6.986-18.698-20.616c0.45-6.647,4.055-11.603,10.249-14.079c1.918-0.792,4.394-1.354,6.986-1.692&#10;&#9;&#9;&#9;&#9;c0.563-5.631,0.899-11.262,1.125-16.896c0.338-5.068,0.675-10.137,1.012-15.322C641.171,771.522,640.833,771.522,640.608,771.415&#10;&#9;&#9;&#9;&#9;L640.608,771.415z M684.201,767.13c-1.35,0.792-2.701,1.467-4.167,2.143c-1.576,0.563-2.926,0.899-4.169,1.125&#10;&#9;&#9;&#9;&#9;c-0.225,2.368-0.337,4.735-0.563,7.098c-0.337,4.956-0.337,10.138-0.563,15.093c-0.113,2.029-0.113,4.06-0.337,6.086&#10;&#9;&#9;&#9;&#9;c6.647-0.563,12.729,1.125,18.248,7.318c0.342,0.451,0.679,0.904,1.017,1.354c9.911-11.04,19.71-22.303,29.513-33.569&#10;&#9;&#9;&#9;&#9;c-1.917,0.226-3.83,0.451-5.747,0.788c-6.532,0.9-13.518,1.918-20.165,1.467C690.737,775.582,686.456,771.974,684.201,767.13&#10;&#9;&#9;&#9;&#9;L684.201,767.13z" transform="matrix(1, 0, 0, 1, 2.7959379156665136, -351.1812017094145)"/><path fill="#E31345" d="M539.9,755.301c6.874,17.348,4.168,30.981,0.338,48.104c8.674,8.561,12.955,14.309,12.729,17.348&#10;&#9;&#9;&#9;&#9;c-0.45,6.646-8.674,13.966-14.98,15.771c-3.831-0.338-6.873-1.806-8.899-4.394c-1.917-2.363-3.83-4.731-5.635-7.098&#10;&#9;&#9;&#9;&#9;c-0.788,0.45-2.026,0.899-3.267,1.917c-6.87,5.293-9.575,5.743-17.46,5.406c-8.448-0.338-14.642-3.718-18.585-9.466&#10;&#9;&#9;&#9;&#9;c-1.467-2.363-2.705-5.294-3.83-8.786c-1.126-3.943-1.801-7.207-1.463-9.911l2.25-21.29c1.351-13.855,7.774-22.079,10.253-26.472&#10;&#9;&#9;&#9;&#9;c5.631-9.916,12.616-15.435,21.177-16.56c2.251-0.225,4.506-0.338,6.644-0.225C529.088,740.434,536.071,745.614,539.9,755.301&#10;&#9;&#9;&#9;&#9;L539.9,755.301z M523.228,782.002c-0.112-6.311-0.563-10.704-1.462-12.842c-0.451-0.788-1.579-1.688-3.268-2.593&#10;&#9;&#9;&#9;&#9;c-1.8-0.9-3.267-1.351-4.28-1.464c-1.688-0.111-4.393,0.563-7.548,3.043c-4.506,3.718-6.757,11.938-7.549,23.883l-0.225,3.376&#10;&#9;&#9;&#9;&#9;c-0.225,3.155,1.692,5.97,3.831,8.562c2.029,2.477,4.506,3.83,7.098,4.055c-1.576-2.93-3.268-5.855-4.843-8.898&#10;&#9;&#9;&#9;&#9;c-1.917-3.718-2.705-6.76-2.479-9.123C503.176,780.084,516.135,774.229,523.228,782.002L523.228,782.002z" transform="matrix(1, 0, 0, 1, 1.0518424575303982, -351.0149180059057)"/><path fill="#A5127D" d="M619.993,765.779c-0.225,1.017-0.675,4.955-1.351,11.716c-0.45,4.844-1.351,8.787-2.705,11.825&#10;&#9;&#9;&#9;&#9;c-1.576,6.535-4.506,12.958-8.561,19.152c-5.631,8.223-18.811,19.264-30.077,18.477c-8.335-0.566-15.771-6.085-22.19-16.789&#10;&#9;&#9;&#9;&#9;c-2.367-5.855-3.831-14.529-4.619-26.017c-0.112-2.705-0.112-7.211-0.112-13.746c0.225-8.224,0.45-12.729,0.563-13.404&#10;&#9;&#9;&#9;&#9;c0.226-3.83,0.901-7.998,2.139-12.392c3.155-5.405,6.985-8.224,11.491-8.448c5.744,1.351,8.11,4.28,7.098,8.898&#10;&#9;&#9;&#9;&#9;c0,2.139-0.338,5.406-0.904,9.8c-0.563,4.509-0.788,7.886-0.788,10.141c-1.012,9.348,0.113,18.81,3.493,28.613&#10;&#9;&#9;&#9;&#9;c2.706,5.968,5.52,9.236,8.111,9.686c3.042-1.125,5.407-2.817,7.098-4.955c0.226-0.226,1.689-2.592,4.506-7.211&#10;&#9;&#9;&#9;&#9;c2.138-3.718,3.605-9.687,4.167-18.136c0.563-8.901-0.563-17.238-3.38-24.895c1.688-4.847,3.043-7.886,3.942-9.35&#10;&#9;&#9;&#9;&#9;c2.026-2.93,4.956-4.393,8.787-4.733c0.563,0.341,2.138,0.791,4.506,1.354c1.351,0.338,3.043,1.238,4.843,2.705&#10;&#9;&#9;&#9;&#9;C618.642,744.715,619.993,753.951,619.993,765.779L619.993,765.779z" transform="matrix(1, 0, 0, 1, 2.7321427587350513, -349.3687702723813)"/><path fill="#F3AD0F" d="M684.88,740.884c1.576,0.788,2.138,2.593,2.364,4.848c0,0.108-0.226,2.138-0.451,5.968&#10;&#9;&#9;&#9;&#9;c-0.337,5.069-3.493,8.787-9.349,11.154c-2.93,1.125-0.45,0.225-7.886,1.234c-0.45,4.059-0.788,8.452-1.125,12.958&#10;&#9;&#9;&#9;&#9;c-0.113,1.125-0.226,6.306-0.563,15.317c-0.229,6.311-0.679,11.378-1.355,15.209c8.674-2.814,14.646-3.156,20.953,2.93&#10;&#9;&#9;&#9;&#9;c0.9,1.238,1.238,3.268,0.9,6.081c-0.451,9.69-9.012,12.729-17.797,14.192c-5.181,0.341-10.25,0.566-15.318,0.9&#10;&#9;&#9;&#9;&#9;c-1.016,0.116-3.268,0.454-6.985,1.017c-2.705,0.45-5.068,0.676-6.985,0.563c-9.124-0.675-13.067-3.264-12.392-13.291&#10;&#9;&#9;&#9;&#9;c0.338-3.943,2.255-6.645,5.973-8.111c1.351-0.563,4.843-1.241,10.587-2.143c0.788-5.518,1.351-13.063,1.917-22.416&#10;&#9;&#9;&#9;&#9;c0.675-11.036,1.238-18.472,1.576-22.527c-5.068-0.112-7.436-0.112-6.873-0.112c-2.364-0.113-5.181-1.018-8.561-2.592&#10;&#9;&#9;&#9;&#9;c-1.463-3.152-2.251-4.731-2.364-4.957c-0.675-1.805-1.013-3.717-0.9-5.522c0.225-3.264,1.237-6.306,3.039-8.895&#10;&#9;&#9;&#9;&#9;c2.029-3.268,4.506-4.734,7.547-4.51c0.901,0,2.142,0.45,3.718,1.018c1.576,0.675,2.817,1.013,3.718,1.125&#10;&#9;&#9;&#9;&#9;c4.956,0.337,11.941-0.112,20.728-1.351C675.077,738.179,679.583,737.954,684.88,740.884L684.88,740.884z" transform="matrix(1, 0, 0, 1, 3.216521200958084, -351.63104627293376)"/><path fill="#1B89BC" d="M697.722,769.16c-13.067-0.904-9.69-23.771-0.337-24.896c1.462-0.111,14.529-0.899,20.611-0.45&#10;&#9;&#9;&#9;&#9;c2.817,0.113,6.984,0.226,12.503,0c5.635-0.112,9.803-0.112,12.505,0c24.67,1.801,27.938,6.761,14.758,26.584&#10;&#9;&#9;&#9;&#9;c-1.8,0.676-3.942,2.592-6.423,5.744c-2.7,3.608-4.843,5.86-6.193,6.872c-2.705,4.169-7.886,10.476-15.659,19.036&#10;&#9;&#9;&#9;&#9;c7.211-1.914,65.337-14.979,66.801-15.318c4.955-1.125,9.349-1.463,13.404-1.125c10.479,0.676,10.028,8.674,7.322,16.218&#10;&#9;&#9;&#9;&#9;c-2.255,6.311-4.168,7.777-10.815,7.327c-6.869-0.566-75.021,17.006-90.792,23.315c-6.985,2.817-13.291,5.97-19.489-0.225&#10;&#9;&#9;&#9;&#9;c-2.363-2.367-3.605-5.185-3.38-8.449c0.113-1.804,0.792-3.717,1.917-5.521c2.026-3.151,3.042-4.727,3.042-4.843&#10;&#9;&#9;&#9;&#9;c11.6-12.955,25.346-28.61,41.226-47.086C722.843,765.329,709.097,769.948,697.722,769.16L697.722,769.16z" transform="matrix(1, 0, 0, 1, 7.092851763123122, -349.74198573900946)"/><path fill-rule="evenodd" clip-rule="evenodd" d="M615.938,827.508c10.253,0,18.589,8.228,18.589,18.477&#10;&#9;&#9;&#9;&#9;s-8.335,18.585-18.589,18.585c-10.249,0-18.585-8.336-18.585-18.585S605.688,827.508,615.938,827.508L615.938,827.508z" transform="matrix(1, 0, 0, 1, -7.314702367051439, -345.3893108479081)"/><path fill-rule="evenodd" clip-rule="evenodd" d="M664.266,702.134c5.855,0,10.699,4.844,10.699,10.703&#10;&#9;&#9;&#9;&#9;c0,5.969-4.844,10.813-10.699,10.813c-5.973,0-10.703-4.844-10.703-10.813C653.563,706.978,658.293,702.134,664.266,702.134&#10;&#9;&#9;&#9;&#9;L664.266,702.134z" transform="matrix(1, 0, 0, 1, -15.702505963784802, -354.2376176619823)"/><path fill-rule="evenodd" clip-rule="evenodd" d="M611.32,867.612c1.804,0,3.38,1.467,3.38,3.38c0,1.914-1.576,3.493-3.38,3.493&#10;&#9;&#9;&#9;&#9;c-1.914,0-3.494-1.579-3.494-3.493C607.826,869.079,609.406,867.612,611.32,867.612L611.32,867.612z" transform="matrix(-2.6585204601287837, 0, 0, -2.6585204601287837, 2258.083984375, 2837.796997612093)"/></svg>